<?xml version="1.0" encoding="utf-8"?>
<!-- Generator: Adobe Illustrator 26.0.1, SVG Export Plug-In . SVG Version: 6.00 Build 0)  -->
<svg version="1.1" id="Layer_1" xmlns="http://www.w3.org/2000/svg" xmlns:xlink="http://www.w3.org/1999/xlink" x="0px" y="0px"
	 viewBox="0 0 1920 1080" style="enable-background:new 0 0 1920 1080;" xml:space="preserve">
<style type="text/css">
	.st0{fill:#FFFFFF;}
</style>
<g>
	<path class="st0" d="M1095.49,655.62c-8.61,21.58-27.43,24.01-35.43,24.01h-0.28c-7.84-0.06-26.93-2.54-35.37-24.5L921.04,386.36
		c-22.24-57.84-76.66-95.2-138.63-95.2s-116.39,37.36-138.63,95.2L540.41,655.12c-8.44,21.96-27.54,24.45-35.37,24.5h-0.28
		c-8,0-26.82-2.43-35.43-24.01L323.09,290H204.21l162.64,406.62C389.59,753.41,443.62,790,504.76,790h0.99
		c61.53-0.44,115.56-37.8,137.64-95.26l103.37-268.76c8.5-22.08,27.76-24.45,35.65-24.45c7.89,0,27.15,2.37,35.65,24.45
		l103.37,268.76c22.08,57.45,76.1,94.81,137.64,95.26h0.99c61.15,0,115.18-36.59,137.91-93.38L1360.61,290h-118.87L1095.49,655.62z"
		/>
	<polygon class="st0" points="1398.24,786.69 1517.11,786.69 1715.79,290 1596.91,290 	"/>
</g>
</svg>
